# xmcd
#
# Track frame offsets:
#	150
#	16381
#	29474
#	48070
#	65624
#	91071
#	105594
#	120021
#	133098
#
# Disc length: 2081 seconds
#
# Revision: 0
# Processed by: cddbd v1.5.1PL2 Copyright (c) Steve Scherf et al.
# Submitted via: EasyCDDAExtractor 9.1.3.1
#
DISCID=66081f09
DTITLE=Emmylou Harris - Bluebird
DYEAR=1988
DGENRE=Country
TTITLE0=Heaven Only Knows
TTITLE1=You've Been On My Mind
TTITLE2=Icy Blue Heart
TTITLE3=Love Is
TTITLE4=No Regrets
TTITLE5=Lonely Street
TTITLE6=Heartbreak Hill
TTITLE7=I Still Miss Someone
TTITLE8=A River For Him
EXTD=
EXTT0=
EXTT1=
EXTT2=
EXTT3=
EXTT4=
EXTT5=
EXTT6=
EXTT7=
EXTT8=
PLAYORDER=
